PathFileType	4	(X/Y/Z)	/Users/itak/Documents/Research/Walk-IL/dataset/trc/00016_00004.trc
DataRate	CameraRate	NumFrames	NumMarkers	Units	OrigDataRate	OrigDataStartFrame	OrigNumFrames
100.000000	100.000000	4	53	mm	100.000000	270	540
Frame#	Time	RPSI			LPSI			L3			STRN			T10			C7			CLAV			RBAK			LBAK			LSHO			LUPA			LAEL			LAOL			LWTS			LWPS			LFRA			LIFD			LHPS			LHTS			RSHO			RUPA			RAEL			RAOL			RWTS			RWPS			RFRA			RIFD			RHTS			RHPS			RBHD			LFHD			RFHD			LBHD			LHIP			RHIP			RASI			LASI			LKNE			LTHI			LANK			LTIP			LTOE			LMT1			LMT5			LHEE			RKNE			RTHI			RANK			RTIP			RTOE			RMT1			RMT5			RHEE			
		X1	Y1	Z1	X2	Y2	Z2	X3	Y3	Z3	X4	Y4	Z4	X5	Y5	Z5	X6	Y6	Z6	X7	Y7	Z7	X8	Y8	Z8	X9	Y9	Z9	X10	Y10	Z10	X11	Y11	Z11	X12	Y12	Z12	X13	Y13	Z13	X14	Y14	Z14	X15	Y15	Z15	X16	Y16	Z16	X17	Y17	Z17	X18	Y18	Z18	X19	Y19	Z19	X20	Y20	Z20	X21	Y21	Z21	X22	Y22	Z22	X23	Y23	Z23	X24	Y24	Z24	X25	Y25	Z25	X26	Y26	Z26	X27	Y27	Z27	X28	Y28	Z28	X29	Y29	Z29	X30	Y30	Z30	X31	Y31	Z31	X32	Y32	Z32	X33	Y33	Z33	X34	Y34	Z34	X35	Y35	Z35	X36	Y36	Z36	X37	Y37	Z37	X38	Y38	Z38	X39	Y39	Z39	X40	Y40	Z40	X41	Y41	Z41	X42	Y42	Z42	X43	Y43	Z43	X44	Y44	Z44	X45	Y45	Z45	X46	Y46	Z46	X47	Y47	Z47	X48	Y48	Z48	X49	Y49	Z49	X50	Y50	Z50	X51	Y51	Z51	X52	Y52	Z52	X53	Y53	Z53	

271	2.7	289.5791931152344	1053.108154296875	-192.5101623535156	265.5713500976562	1047.249755859375	-353.8005676269531	272.1528930664062	1115.987426757812	-279.0269775390625	497.0450439453125	1309.625122070312	-319.4732666015625	257.8372497558594	1260.19482421875	-269.2340698242188	294.6260375976562	1528.30322265625	-291.6068420410156	453.6646728515625	1435.630249023438	-318.5865173339844	264.0588073730469	1392.038818359375	-198.7972106933594	260.8437805175781	1485.541137695312	-383.7255249023438	348.9531555175781	1491.895385742188	-476.8995666503906	291.5682678222656	1371.589721679688	-544.2997436523438	250.2725219726562	1159.276977539062	-563.7890625	215.0895843505859	1157.97265625	-463.8728637695312	281.1650085449219	889.7859497070312	-520.700927734375	196.0326385498047	897.1774291992188	-544.69677734375	233.7037811279297	1043.559204101562	-568.5873413085938	262.2530517578125	703.5469970703125	-503.5760803222656	203.8931579589844	802.0590209960938	-548.5335693359375	276.0990600585938	796.321044921875	-539.020263671875	409.856689453125	1517.297241210938	-137.8156433105469	423.6614990234375	1445.033325195312	-64.28888702392578	458.5111083984375	1174.441284179688	-38.95230102539062	427.3674011230469	1142.085693359375	-129.1766357421875	634.33349609375	959.6937866210938	-129.1130218505859	602.0390014648438	929.1089477539062	-48.8380126953125	495.9596862792969	1104.367797851562	-33.30852508544922	700.681396484375	787.0036010742188	-160.6532592773438	700.4922485351562	864.9215087890625	-134.0113677978516	666.6791381835938	845.571533203125	-69.72759246826172	343.9234619140625	1703.830810546875	-234.7144927978516	517.8165893554688	1730.568237304688	-353.0563049316406	515.842041015625	1731.934814453125	-254.238037109375	338.0295715332031	1705.572875976562	-379.200439453125	349.2638549804688	951.0807495117188	-472.8003845214844	416.9640502929688	947.0480346679688	-109.3931045532227	507.6656799316406	980.1668090820312	-193.8827362060547	471.0816955566406	1000.865966796875	-425.2825317382812	507.1145935058594	526.5247802734375	-429.6586303710938	443.83251953125	651.7304077148438	-465.6745910644531	445.7290954589844	32.92660522460938	-412.2879028320312	451.8032836914062	279.248779296875	-435.1198425292969	663.5738525390625	34.34279632568359	-339.096435546875	604.0985717773438	43.09277725219727	-324.7339782714844	572.9732666015625	32.24246978759766	-426.9302673339844	375.1974487304688	40.09257888793945	-359.7769470214844	409.4121398925781	503.7753295898438	-125.551383972168	431.2595520019531	780.0119018554688	-110.0997467041016	20.0117130279541	170.3973083496094	-109.7873229980469	324.0264892578125	398.4566650390625	-115.7176284790039	203.1034851074219	43.19344329833984	-171.8179016113281	151.0809631347656	83.61078643798828	-196.7460784912109	135.2898254394531	73.73809814453125	-101.7857437133789	-26.26322555541992	206.9794769287109	-149.6207733154297	
272	2.71	281.7126159667969	1052.517578125	-190.7718658447266	258.3101501464844	1046.44873046875	-352.1580200195312	264.7039794921875	1115.327026367188	-277.2284851074219	489.7309875488281	1308.688720703125	-317.165283203125	250.4227600097656	1259.396240234375	-267.1346130371094	287.4770202636719	1527.494140625	-289.285888671875	446.431396484375	1434.722534179688	-316.2733459472656	256.7906799316406	1391.203002929688	-196.5529479980469	253.6449127197266	1484.800170898438	-381.4685363769531	341.8269348144531	1491.115600585938	-474.614501953125	284.4890441894531	1370.794677734375	-541.8741455078125	243.1201019287109	1158.36572265625	-560.9639282226562	207.7941284179688	1157.41064453125	-461.0809936523438	273.2558898925781	888.9200439453125	-517.0611572265625	188.1953735351562	896.4442138671875	-541.180908203125	226.3094329833984	1042.699462890625	-565.435791015625	253.9663696289062	702.8347778320312	-499.1901245117188	195.8376770019531	801.2771606445312	-544.600830078125	268.0847778320312	795.4733276367188	-534.9785766601562	402.6313781738281	1516.326049804688	-135.479736328125	416.5817260742188	1443.985107421875	-62.04476928710938	452.7803039550781	1173.430541992188	-37.26808929443359	421.3976135253906	1141.092651367188	-127.464973449707	630.0270385742188	960.5745849609375	-129.1668701171875	598.4075317382812	929.3353271484375	-48.85588836669922	490.77587890625	1103.535766601562	-32.0264892578125	697.921142578125	788.6972045898438	-161.7991180419922	697.1319580078125	866.520263671875	-134.7853546142578	663.8124389648438	846.5072631835938	-70.41455078125	336.9741516113281	1703.061401367188	-232.2338409423828	510.7828369140625	1729.617431640625	-350.7644348144531	508.8983459472656	1730.956665039062	-251.928955078125	330.92626953125	1704.82177734375	-376.7108764648438	342.7295837402344	950.5269775390625	-470.9560546875	408.4055480957031	946.2081909179688	-107.1856079101562	499.7274780273438	979.1393432617188	-191.3426818847656	464.1112060546875	1000.155700683594	-422.8324279785156	503.8899230957031	527.13916015625	-428.1225891113281	439.5821533203125	651.85009765625	-464.1405944824219	445.7412109375	32.94535446166992	-412.2813415527344	450.3750305175781	279.4331665039062	-434.4430541992188	663.568603515625	34.30802154541016	-339.0465393066406	604.07958984375	43.07554626464844	-324.6230163574219	572.9691772460938	32.35170364379883	-426.8327941894531	375.2085266113281	40.06327438354492	-359.768310546875	395.5464782714844	503.2959899902344	-123.3750762939453	421.0215759277344	779.1046752929688	-107.7134857177734	8.53547477722168	166.6087036132812	-109.3043975830078	310.5285034179688	397.6585693359375	-114.0383605957031	191.6098937988281	41.08856582641602	-173.0630493164062	139.3463287353516	81.13246917724609	-197.4860229492188	123.7483520507812	69.85463714599609	-102.6514434814453	-37.78590774536133	203.892333984375	-148.4802398681641	
273	2.72	273.6861877441406	1051.851928710938	-188.9557647705078	250.8925018310547	1045.587158203125	-350.4365234375	257.1557312011719	1114.626220703125	-275.3349914550781	482.3263244628906	1307.664672851562	-314.7852783203125	242.9499053955078	1258.542114257812	-264.9575500488281	280.2583618164062	1526.620361328125	-286.91552734375	439.1284484863281	1433.728149414062	-313.8998107910156	249.4500732421875	1390.303588867188	-194.2437438964844	246.3730316162109	1483.984497070312	-379.1589050292969	334.620361328125	1490.234619140625	-472.2749938964844	277.3797302246094	1369.860107421875	-539.386474609375	236.0594787597656	1157.310668945312	-558.0877075195312	200.6303558349609	1156.650512695312	-458.2238464355469	265.5432434082031	887.9251098632812	-513.48779296875	180.5280303955078	895.5521850585938	-537.7119140625	219.0577239990234	1041.69482421875	-562.2699584960938	245.7616424560547	701.924072265625	-494.8815612792969	187.9275970458984	800.3480834960938	-540.745849609375	260.2276000976562	794.473876953125	-531.0256958007812	395.3453063964844	1515.28466796875	-133.08935546875	409.439453125	1442.871215820312	-59.7377815246582	446.9098205566406	1172.35986328125	-35.50503158569336	415.2613220214844	1140.034912109375	-125.649658203125	625.4774780273438	961.3195190429688	-129.0742034912109	594.5211791992188	929.4681396484375	-48.72867202758789	485.4186401367188	1102.636596679688	-30.65451240539551	694.8262939453125	790.2288818359375	-162.7438659667969	693.463623046875	867.9669189453125	-135.3878936767578	660.6437377929688	847.3259887695312	-70.9263916015625	329.983154296875	1702.222534179688	-229.6975250244141	503.7100524902344	1728.587768554688	-348.4287109375	501.9151000976562	1729.896118164062	-249.5773620605469	323.774658203125	1704.002685546875	-374.162109375	336.1246948242188	949.9802856445312	-469.0965270996094	399.6363220214844	945.3040771484375	-104.8566589355469	491.6463623046875	978.0819091796875	-188.7233581542969	456.988037109375	999.3367309570312	-420.2749938964844	500.4501953125	527.734375	-426.5217590332031	435.13427734375	651.9536743164062	-462.5159606933594	445.7583312988281	32.95999526977539	-412.2695007324219	448.8314819335938	279.6085815429688	-433.7174377441406	663.5771484375	34.24811935424805	-339.0006408691406	604.0717163085938	43.03995132446289	-324.5129699707031	572.9649047851562	32.44879150390625	-426.7286987304688	375.2246398925781	40.05631637573242	-359.75537109375	381.5949401855469	502.844482421875	-121.3089752197266	410.6352233886719	778.153076171875	-105.239143371582	-1.889201641082764	161.640625	-108.8996963500977	297.1727905273438	396.7526550292969	-112.4384384155273	182.0887908935547	39.33045196533203	-174.0993957519531	129.3217620849609	78.40275573730469	-198.0141906738281	114.0152359008789	65.81253051757812	-103.300178527832	-48.43889617919922	199.3254547119141	-147.4748687744141	
274	2.73	265.4859313964844	1051.119018554688	-187.0617523193359	243.3255462646484	1044.6748046875	-348.6322631835938	249.4892425537109	1113.881713867188	-273.3487243652344	474.8312377929688	1306.552368164062	-312.3252258300781	235.4106140136719	1257.637329101562	-262.7044677734375	272.9693603515625	1525.6875	-284.5024719238281	431.7570495605469	1432.651611328125	-311.464111328125	242.0358428955078	1389.350708007812	-191.8714904785156	239.0377502441406	1483.098999023438	-376.8037109375	327.34716796875	1489.253051757812	-469.8845520019531	270.2374877929688	1368.794067382812	-536.8394165039062	229.0621185302734	1156.125244140625	-555.1694946289062	193.5804443359375	1155.705322265625	-455.3062133789062	258.0287475585938	886.8151245117188	-510.0079956054688	173.023193359375	894.5115356445312	-534.2886962890625	211.9253540039062	1040.554077148438	-559.0988159179688	237.6403656005859	700.794921875	-490.6690063476562	180.1674652099609	799.2784423828125	-536.9791870117188	252.518310546875	793.3262939453125	-527.1784057617188	387.9932250976562	1514.183837890625	-130.6490783691406	402.2292175292969	1441.704467773438	-57.37080001831055	440.8893737792969	1171.239135742188	-33.66902542114258	408.9401245117188	1138.916137695312	-123.7156524658203	620.6785278320312	961.9254760742188	-128.8327331542969	590.3671875	929.4999389648438	-48.46054077148438	479.8837280273438	1101.677490234375	-29.19344329833984	691.3826293945312	791.58935546875	-163.4842224121094	689.4737548828125	869.244384765625	-135.8144836425781	657.16259765625	848.0219116210938	-71.25977325439453	322.9498291015625	1701.317504882812	-227.1102294921875	496.5986938476562	1727.483154296875	-346.0514526367188	494.8922119140625	1728.757568359375	-247.1851043701172	316.5778198242188	1703.120971679688	-371.5604553222656	329.3908386230469	949.3981323242188	-467.1622314453125	390.6473693847656	944.3360595703125	-102.3873901367188	483.4061584472656	976.9953002929688	-186.0059814453125	449.7108764648438	998.4064331054688	-417.5986022949219	496.738525390625	528.3015747070312	-424.8453979492188	430.4492797851562	652.030517578125	-460.7911071777344	445.7799987792969	32.97203063964844	-412.2498779296875	447.1504516601562	279.7696533203125	-432.931396484375	663.6021118164062	34.15552520751953	-338.9525756835938	604.0819702148438	42.98636627197266	-324.404052734375	572.9596557617188	32.53359603881836	-426.6136474609375	375.2446899414062	40.06988143920898	-359.7370300292969	367.6059875488281	502.4025573730469	-119.3763809204102	400.0934448242188	777.149658203125	-102.6884155273438	-11.24688243865967	155.6145477294922	-108.5896224975586	284.0086059570312	395.7415161132812	-110.9476165771484	174.5443267822266	38.08271789550781	-174.9415130615234	121.0098571777344	75.57781219482422	-198.358154296875	106.0980453491211	61.7498893737793	-103.7630233764648	-58.22823333740234	193.3816833496094	-146.6293029785156	
